<svg width="32" height="32" viewBox="0 0 32 32" fill="none" xmlns="http://www.w3.org/2000/svg">
<g clip-path="url(#clip0_30132_6052)">
<path d="M0 4.57143C0 2.0467 2.0467 0 4.57143 0H27.4286C29.9533 0 32 2.0467 32 4.57143V27.4286C32 29.9533 29.9533 32 27.4286 32H4.57143C2.0467 32 0 29.9533 0 27.4286V4.57143Z" fill="#F3474D"/>
<path d="M25.4287 27.5794C24.8088 27.5794 24.2556 27.4539 23.769 27.2028C23.2904 26.9438 22.9137 26.5868 22.639 26.1316C22.3644 25.6765 22.2271 25.1625 22.2271 24.5896C22.2271 24.0168 22.3605 23.5067 22.6273 23.0594C22.9019 22.6043 23.2707 22.2472 23.7337 21.9883C24.1967 21.7293 24.7185 21.5999 25.2992 21.5999C25.8642 21.5999 26.3625 21.7215 26.7941 21.9647C27.2257 22.208 27.5632 22.5454 27.8064 22.977C28.0575 23.4086 28.1831 23.903 28.1831 24.4602C28.1831 24.5622 28.1752 24.672 28.1596 24.7898C28.1517 24.8996 28.1321 25.0291 28.1007 25.1782L23.1687 25.19V23.954L27.3356 23.9423L26.5587 24.4602C26.5509 24.1306 26.4999 23.8599 26.4057 23.648C26.3115 23.4283 26.1703 23.2635 25.9819 23.1536C25.8015 23.0359 25.5778 22.977 25.311 22.977C25.0285 22.977 24.7813 23.0437 24.5694 23.1771C24.3654 23.3027 24.2046 23.4832 24.0868 23.7186C23.977 23.954 23.9221 24.2404 23.9221 24.5779C23.9221 24.9153 23.9809 25.2057 24.0986 25.4489C24.2242 25.6843 24.3968 25.8687 24.6165 26.0021C24.8441 26.1277 25.1109 26.1905 25.4169 26.1905C25.6994 26.1905 25.9545 26.1434 26.1821 26.0492C26.4096 25.9472 26.6097 25.7981 26.7824 25.6019L27.7711 26.5907C27.4886 26.9203 27.1473 27.1675 26.7471 27.3323C26.3468 27.497 25.9074 27.5794 25.4287 27.5794Z" fill="white"/>
<path d="M12.3274 27.45V21.7293H14.1283V27.45H12.3274ZM15.9881 27.45V24.1071C15.9881 23.8167 15.8979 23.5931 15.7174 23.4361C15.5448 23.2713 15.329 23.1889 15.07 23.1889C14.8895 23.1889 14.7286 23.2282 14.5874 23.3066C14.4461 23.3773 14.3324 23.4793 14.246 23.6127C14.1676 23.7461 14.1283 23.9109 14.1283 24.1071L13.4339 23.801C13.4339 23.3459 13.5319 22.9574 13.7281 22.6357C13.9243 22.3061 14.1911 22.055 14.5285 21.8824C14.866 21.7019 15.2466 21.6116 15.6703 21.6116C16.0705 21.6116 16.4276 21.7019 16.7415 21.8824C17.0632 22.0628 17.3182 22.314 17.5066 22.6357C17.6949 22.9574 17.7891 23.3419 17.7891 23.7892V27.45H15.9881ZM19.6489 27.45V24.1071C19.6489 23.8167 19.5586 23.5931 19.3781 23.4361C19.2055 23.2713 18.9897 23.1889 18.7307 23.1889C18.5502 23.1889 18.3894 23.2282 18.2481 23.3066C18.1069 23.3773 17.9931 23.4793 17.9068 23.6127C17.8283 23.7461 17.7891 23.9109 17.7891 24.1071L16.7532 23.9658C16.7689 23.4793 16.8827 23.0634 17.0946 22.7181C17.3143 22.365 17.6007 22.0942 17.9539 21.9059C18.3148 21.7097 18.719 21.6116 19.1663 21.6116C19.6057 21.6116 19.9941 21.7058 20.3316 21.8941C20.6768 22.0746 20.9476 22.3375 21.1438 22.6828C21.3478 23.0202 21.4498 23.4283 21.4498 23.9069V27.45H19.6489Z" fill="white"/>
<path d="M9.92832 27.5795C9.62228 27.5795 9.36725 27.4735 9.16322 27.2616C8.95919 27.0498 8.85718 26.7947 8.85718 26.4965C8.85718 26.1827 8.95919 25.9237 9.16322 25.7197C9.36725 25.5078 9.62228 25.4019 9.92832 25.4019C10.2422 25.4019 10.4972 25.5078 10.6934 25.7197C10.8975 25.9237 10.9995 26.1827 10.9995 26.4965C10.9995 26.7947 10.8975 27.0498 10.6934 27.2616C10.4972 27.4735 10.2422 27.5795 9.92832 27.5795Z" fill="white"/>
</g>
<defs>
<clipPath id="clip0_30132_6052">
<rect width="32" height="32" fill="white"/>
</clipPath>
</defs>
</svg>
