<svg width="48" height="48" viewBox="0 0 48 48" fill="none" xmlns="http://www.w3.org/2000/svg">
<g clip-path="url(#clip0_30234_2456)">
<path d="M11.25 16.5H9.75C8.92125 16.5 8.25 15.8288 8.25 15V13.5C8.25 12.6712 8.92125 12 9.75 12H11.25C12.0788 12 12.75 12.6712 12.75 13.5V15C12.75 15.8288 12.0788 16.5 11.25 16.5ZM38.25 15.75H18C17.172 15.75 16.5 15.078 16.5 14.25C16.5 13.422 17.172 12.75 18 12.75H38.25C39.078 12.75 39.75 13.422 39.75 14.25C39.75 15.078 39.078 15.75 38.25 15.75ZM11.25 26.25H9.75C8.92125 26.25 8.25 25.5788 8.25 24.75V23.25C8.25 22.4212 8.92125 21.75 9.75 21.75H11.25C12.0788 21.75 12.75 22.4212 12.75 23.25V24.75C12.75 25.5788 12.0788 26.25 11.25 26.25ZM38.25 25.5H18C17.172 25.5 16.5 24.828 16.5 24C16.5 23.172 17.172 22.5 18 22.5H38.25C39.078 22.5 39.75 23.172 39.75 24C39.75 24.828 39.078 25.5 38.25 25.5ZM11.25 36H9.75C8.92125 36 8.25 35.3288 8.25 34.5V33C8.25 32.1712 8.92125 31.5 9.75 31.5H11.25C12.0788 31.5 12.75 32.1712 12.75 33V34.5C12.75 35.3288 12.0788 36 11.25 36ZM38.25 35.25H18C17.172 35.25 16.5 34.578 16.5 33.75C16.5 32.922 17.172 32.25 18 32.25H38.25C39.078 32.25 39.75 32.922 39.75 33.75C39.75 34.578 39.078 35.25 38.25 35.25Z" fill="white"/>
</g>
<defs>
<clipPath id="clip0_30234_2456">
<rect width="48" height="48" fill="white"/>
</clipPath>
</defs>
</svg>
