<svg width="48" height="48" viewBox="0 0 48 48" fill="none" xmlns="http://www.w3.org/2000/svg">
<path d="M11.5087 9.05206C9.8125 9.05206 8.38889 9.35241 7.23611 9.95137C6.08507 10.5521 5.21528 11.4288 4.62847 12.5798C4.0434 13.7326 3.75 15.1441 3.75 16.8125V22.1041C3.75 23.7725 4.0434 25.1823 4.63021 26.335C5.21701 27.4861 6.08507 28.3628 7.23611 28.9635C8.38889 29.5625 9.6632 29.8646 11.3594 29.8646V33.9809C11.3594 34.6979 11.5347 35.2673 11.8872 35.6875C12.2396 36.1094 12.7396 36.3194 13.3872 36.3194C13.842 36.3194 14.2552 36.1979 14.6285 35.9583C15 35.7153 15.4705 35.3403 16.0365 34.8298L21.5799 29.8646H26.0556C27.7517 29.8646 29.1753 29.5625 30.3281 28.9635C31.4809 28.3628 32.3472 27.4861 32.934 26.335C33.5191 25.1823 33.8142 23.7725 33.8142 22.1041V16.8125C33.8142 15.1423 33.5208 13.7326 32.934 12.5798C32.3472 11.4288 31.4809 10.5521 30.3281 9.95137C29.1753 9.35241 27.7517 9.05206 26.0556 9.05206H11.5087ZM35.9549 15.0521C36.0295 15.6146 36.0677 16.1996 36.0677 16.8142V22.1024C36.0677 24.1198 35.684 25.8906 34.9427 27.3524C34.1406 28.9288 32.941 30.1423 31.3646 30.96C29.8958 31.7239 28.1094 32.1146 26.0556 32.1146H22.4392L18.7049 35.4514C19.5972 35.7291 20.6094 35.8646 21.75 35.8646H26.2205L31.7691 40.8298C32.3316 41.3403 32.8056 41.7153 33.1736 41.9548C33.5486 42.1944 33.9601 42.3142 34.4184 42.3142C35.0625 42.3142 35.566 42.1059 35.9184 41.6857C36.2708 41.2656 36.4427 40.6962 36.4427 39.9826V35.8646C38.1441 35.8646 39.4132 35.5642 40.5677 34.9635C41.7222 34.3646 42.5851 33.4878 43.1771 32.3316C43.7622 31.184 44.0556 29.776 44.0556 28.1024V22.8142C44.0556 21.1423 43.7622 19.7326 43.1771 18.5764C42.5851 17.4288 41.7222 16.5521 40.5677 15.9514C39.4132 15.3524 37.9948 15.0521 36.2934 15.0521H35.9549Z" fill="white"/>
</svg>
